<svg id="Capa_1" data-name="Capa 1" xmlns="http://www.w3.org/2000/svg" viewBox="0 0 249.75 56.9">
    <defs>
        <style>.cls-1{fill:#ffffff;}</style>
    </defs>
    <title>Logo Grupo OSDE</title>
    <path class="cls-1" d="M60.48,23v4.33h4.38a11.4,11.4,0,0,1,6.91,2.33,29.36,29.36,0,0,0-13.61-13.6A11.4,11.4,0,0,1,60.48,23Z" transform="translate(-16.85 -14.07)" />
    <path class="cls-1" d="M25.8,27.33h4.58V23a11.45,11.45,0,0,1,2.36-6.94,29.27,29.27,0,0,0-13.47,13.3A11.43,11.43,0,0,1,25.8,27.33Z" transform="translate(-16.85 -14.07)" />
    <path class="cls-1" d="M30.37,62V57.45H25.8a11.41,11.41,0,0,1-6.54-2A29.18,29.18,0,0,0,32.42,68.57,11.42,11.42,0,0,1,30.37,62Z" transform="translate(-16.85 -14.07)" />
    <path class="cls-1" d="M64.85,57.45H60.48V62a11.34,11.34,0,0,1-2,6.53A29.33,29.33,0,0,0,71.75,55.13,11.38,11.38,0,0,1,64.85,57.45Z" transform="translate(-16.85 -14.07)" />
    <path class="cls-1" d="M70.73,46a5.94,5.94,0,0,1-5.87,5.88H44.27V54.9h4.48v6.89H42.1V41.12h-3V62a2.71,2.71,0,0,0,.84,2,2.64,2.64,0,0,0,2,.81H49A2.8,2.8,0,0,0,51.81,62V54.9h3.06V62A5.89,5.89,0,0,1,49,67.93H41.87A5.88,5.88,0,0,1,36,62V41.12H32.94v4.6H26V39.08H46.71V36H25.8a2.82,2.82,0,0,0-2,.8,2.87,2.87,0,0,0-.83,2V46a2.81,2.81,0,0,0,2.83,2.81h7.14v3.07H25.8A5.89,5.89,0,0,1,19.92,46V38.82a5.82,5.82,0,0,1,1.7-4.14,5.91,5.91,0,0,1,4.18-1.74H46.71V29.88H42.1V23.26h6.65V43.59h3.06V23A2.76,2.76,0,0,0,51,21a2.84,2.84,0,0,0-2-.81H41.87a2.76,2.76,0,0,0-2,.81,2.7,2.7,0,0,0-.84,2v6.88H36V23a5.87,5.87,0,0,1,5.87-5.87H49A5.85,5.85,0,0,1,54.87,23V43.59h3.07V39.08h6.66v6.65H44.27v3H64.85a2.81,2.81,0,0,0,2-.82,2.77,2.77,0,0,0,.82-2V38.82A2.76,2.76,0,0,0,64.85,36H57.95V32.95h6.91a5.87,5.87,0,0,1,5.87,5.88ZM64.85,29.88H57.95V23A9,9,0,0,0,49,14.07H41.87A9,9,0,0,0,32.94,23v6.88H25.8a8.94,8.94,0,0,0-8.94,8.94V46A9,9,0,0,0,25.8,54.9h7.14V62A8.94,8.94,0,0,0,41.87,71H49a8.82,8.82,0,0,0,6.31-2.62A8.73,8.73,0,0,0,57.95,62V54.9h6.91A9,9,0,0,0,73.79,46V38.82a9,9,0,0,0-8.93-8.94" transform="translate(-16.85 -14.07)" />
    <path class="cls-1" d="M106.1,55.14c-18.48.13-18.48-25.2.11-25.16,6.8,0,1.2,0,10.43,0,19.67,0,19.67,25.18-.11,25.16Zm10.54,5.09c26.82,0,26.5-35.37,0-35.44-7.86,0-3,0-10.43,0-25.84,0-25.73,35.45,0,35.44Z" transform="translate(-16.85 -14.07)" />
    <path class="cls-1" d="M117,44.83c4.63,0,4.58-4.49-.06-4.5H106.53c-5.06,0-5.06,4.5.05,4.5Zm-10.86,5.08c-12.54,0-12.48-14.71,0-14.73h10.43c12.64,0,12.59,14.74,0,14.73Z" transform="translate(-16.85 -14.07)" />
    <path class="cls-1" d="M185.44,60.25H207.3c24,0,23.81-35.39,0-35.39H185.44v5H207.3c16.24,0,16.78,25.33,0,25.33H185.44Z" transform="translate(-16.85 -14.07)" />
    <path class="cls-1" d="M185.44,49.75H207.3c10.06,0,10.06-14.61,0-14.61H185.44v5.09H207.3a2.28,2.28,0,1,1,0,4.55H185.44Z" transform="translate(-16.85 -14.07)" />
    <polygon class="cls-1" points="212.74 11.65 217.73 11.65 217.73 40.99 249.75 40.99 249.75 46.07 212.74 46.07 212.74 11.65" />
    <polygon class="cls-1" points="222.27 11.65 238.5 11.65 238.5 16.75 227.25 16.75 227.25 21.18 238.5 21.18 238.5 26.16 227.25 26.16 227.25 30.7 249.75 30.7 249.75 35.79 222.27 35.79 222.27 11.65" />
    <path class="cls-1" d="M181,30V24.91h-8.66c-8.27,0-13.2,7.25-14.38,8.66l-6.82,7.85c-2.33,2.65-6.44,2.43-6.44,2.43h-5.14V49h5.19c7.46.05,9.85-3.68,10.6-4.55L162.67,36c2.22-2.55,5.3-6.12,9.58-6Z" transform="translate(-16.85 -14.07)" />
    <path class="cls-1" d="M139.6,54.12V59.2h8.66c8.28,0,13.2-7.25,14.39-8.66l6.82-7.84c2.33-2.66,6.44-2.44,6.44-2.44H181V35.13h-5.19c-7.47-.05-9.85,3.68-10.61,4.55l-7.3,8.44c-2.23,2.55-5.31,6.12-9.58,6Z" transform="translate(-16.85 -14.07)" />
</svg>
